# xmcd CD database file
#
# Track frame offsets:
#	150
#	7769
#	23789
#
# Disc length: 633 seconds
#
# Revision: 0
# Processed by: cddbd v1.5.1PL2 Copyright (c) Steve Scherf et al.
# Submitted via: CDex 1.60beta1
#
DISCID=11027703
DTITLE=PLAGAREC Factory - SORA (Preview edition)
DYEAR=1900
DGENRE=未分類 (日本)
TTITLE0=prologue
TTITLE1=Look up to the sky,run in the ground
TTITLE2=KUJIRAGUMO
EXTD=
EXTT0=
EXTT1=
EXTT2=
PLAYORDER=
